<?xml version="1.0" encoding="UTF-8" standalone="no"?>
<!-- Created with Inkscape (http://www.inkscape.org/) -->

<svg
   xmlns:dc="http://purl.org/dc/elements/1.1/"
   xmlns:cc="http://creativecommons.org/ns#"
   xmlns:rdf="http://www.w3.org/1999/02/22-rdf-syntax-ns#"
   xmlns:svg="http://www.w3.org/2000/svg"
   xmlns="http://www.w3.org/2000/svg"
   xmlns:sodipodi="http://sodipodi.sourceforge.net/DTD/sodipodi-0.dtd"
   xmlns:inkscape="http://www.inkscape.org/namespaces/inkscape"
   version="1.1"
   id="svg815"
   xml:space="preserve"
   width="161.99893"
   height="77.555199"
   viewBox="0 0 161.99893 77.555198"
   sodipodi:docname="fei_logo.svg"
   inkscape:version="0.92.3 (2405546, 2018-03-11)"><metadata
     id="metadata821"><rdf:RDF><cc:Work
         rdf:about=""><dc:format>image/svg+xml</dc:format><dc:type
           rdf:resource="http://purl.org/dc/dcmitype/StillImage" /><dc:title></dc:title></cc:Work></rdf:RDF></metadata><defs
     id="defs819"><clipPath
       clipPathUnits="userSpaceOnUse"
       id="clipPath863"><path
         d="m 291.968,209.479 h 121.5 v 58.167 h -121.5 z"
         id="path861"
         inkscape:connector-curvature="0" /></clipPath><clipPath
       clipPathUnits="userSpaceOnUse"
       id="clipPath887"><path
         d="M 56.693,321.218 H 238.464 V 439.37 H 56.693 Z"
         id="path885"
         inkscape:connector-curvature="0" /></clipPath><clipPath
       clipPathUnits="userSpaceOnUse"
       id="clipPath909"><path
         d="m 291.968,351.211 h 121.5 v 58.167 h -121.5 z"
         id="path907"
         inkscape:connector-curvature="0" /></clipPath><clipPath
       clipPathUnits="userSpaceOnUse"
       id="clipPath933"><path
         d="M 56.693,179.486 H 238.464 V 297.638 H 56.693 Z"
         id="path931"
         inkscape:connector-curvature="0" /></clipPath></defs><sodipodi:namedview
     pagecolor="#ffffff"
     bordercolor="#666666"
     borderopacity="1"
     objecttolerance="10"
     gridtolerance="10"
     guidetolerance="10"
     inkscape:pageopacity="0"
     inkscape:pageshadow="2"
     inkscape:window-width="1858"
     inkscape:window-height="1057"
     id="namedview817"
     showgrid="false"
     fit-margin-top="0"
     fit-margin-left="0"
     fit-margin-right="0"
     fit-margin-bottom="0"
     inkscape:zoom="1.1213286"
     inkscape:cx="7.5589539"
     inkscape:cy="-35.758698"
     inkscape:window-x="1420"
     inkscape:window-y="-8"
     inkscape:window-maximized="1"
     inkscape:current-layer="g823" /><g
     id="g823"
     inkscape:groupmode="layer"
     inkscape:label="dizajn_manual_tuke_1_cast"
     transform="matrix(1.3333333,0,0,-1.3333333,-389.29172,545.83652)"><g
       id="g903"><g
         id="g905"
         clip-path="url(#clipPath909)"><g
           id="g911"
           transform="translate(346.5008,391.2004)"><path
             d="M 0,0 H -18.178 V -18.177 H -32.72 V 0 H -50.897 V 14.542 H 0 Z m -0.001,-19.995 c 0,-9.02 -7.339,-16.359 -16.359,-16.359 h -18.177 c -9.021,0 -16.36,7.339 -16.36,16.359 v 16.36 l 14.542,-0.001 v -18.176 h 21.812 v 18.177 h 14.542 z m -54.531,38.172 v -38.172 c 0,-11.025 8.969,-19.995 19.995,-19.995 h 18.177 c 11.025,0 19.995,8.97 19.995,19.995 v 38.172 z"
             style="fill:#fab20b;fill-opacity:1;fill-rule:nonzero;stroke:none"
             id="path913"
             inkscape:connector-curvature="0" /></g><g
           id="g915"
           transform="translate(369.5309,377.9723)"><path
             d="M 0,0 V -11.311 H -4.463 V 15.62 H 13.388 V 11.734 H 0 V 3.848 H 12.542 V 0 Z"
             style="fill:#fab20b;fill-opacity:1;fill-rule:nonzero;stroke:none"
             id="path917"
             inkscape:connector-curvature="0" /></g><g
           id="g919"
           transform="translate(387.2296,393.5926)"><path
             d="M 0,0 H 17.582 V -3.771 H 4.463 v -7.386 h 12.311 v -3.617 H 4.463 v -8.387 H 18.12 v -3.771 H 0 Z"
             style="fill:#fab20b;fill-opacity:1;fill-rule:nonzero;stroke:none"
             id="path921"
             inkscape:connector-curvature="0" /></g><path
           d="m 413.469,366.661 h -4.463 v 26.932 h 4.463 z"
           style="fill:#fab20b;fill-opacity:1;fill-rule:nonzero;stroke:none"
           id="path923"
           inkscape:connector-curvature="0" /></g></g></g></svg>