<?xml version="1.0" encoding="UTF-8" standalone="no"?>
<!-- Created with Inkscape (http://www.inkscape.org/) -->

<svg
   xmlns:dc="http://purl.org/dc/elements/1.1/"
   xmlns:cc="http://creativecommons.org/ns#"
   xmlns:rdf="http://www.w3.org/1999/02/22-rdf-syntax-ns#"
   xmlns:svg="http://www.w3.org/2000/svg"
   xmlns="http://www.w3.org/2000/svg"
   xmlns:sodipodi="http://sodipodi.sourceforge.net/DTD/sodipodi-0.dtd"
   xmlns:inkscape="http://www.inkscape.org/namespaces/inkscape"
   version="1.1"
   id="svg837"
   xml:space="preserve"
   width="193.45786"
   height="66.309334"
   viewBox="0 0 193.45785 66.309333"
   sodipodi:docname="tuke_logo.svg"
   inkscape:version="0.92.3 (2405546, 2018-03-11)"><metadata
     id="metadata843"><rdf:RDF><cc:Work
         rdf:about=""><dc:format>image/svg+xml</dc:format><dc:type
           rdf:resource="http://purl.org/dc/dcmitype/StillImage" /><dc:title></dc:title></cc:Work></rdf:RDF></metadata><defs
     id="defs841"><clipPath
       clipPathUnits="userSpaceOnUse"
       id="clipPath869"><path
         d="M 287.736,93.675 H 432.83 v 49.733 H 287.736 Z"
         id="path867"
         inkscape:connector-curvature="0" /></clipPath><clipPath
       clipPathUnits="userSpaceOnUse"
       id="clipPath897"><path
         d="M 287.736,228.834 H 432.83 v 49.733 H 287.736 Z"
         id="path895"
         inkscape:connector-curvature="0" /></clipPath><clipPath
       clipPathUnits="userSpaceOnUse"
       id="clipPath927"><path
         d="m 56.693,203.191 h 196.859 v 101.02 H 56.693 Z"
         id="path925"
         inkscape:connector-curvature="0" /></clipPath><clipPath
       clipPathUnits="userSpaceOnUse"
       id="clipPath957"><path
         d="M 56.693,338.35 H 253.552 V 439.37 H 56.693 Z"
         id="path955"
         inkscape:connector-curvature="0" /></clipPath><clipPath
       clipPathUnits="userSpaceOnUse"
       id="clipPath985"><path
         d="M 287.736,363.994 H 432.83 v 49.732 H 287.736 Z"
         id="path983"
         inkscape:connector-curvature="0" /></clipPath><clipPath
       clipPathUnits="userSpaceOnUse"
       id="clipPath1015"><path
         d="m 56.693,68.032 h 196.859 v 101.02 H 56.693 Z"
         id="path1013"
         inkscape:connector-curvature="0" /></clipPath></defs><sodipodi:namedview
     pagecolor="#ffffff"
     bordercolor="#666666"
     borderopacity="1"
     objecttolerance="10"
     gridtolerance="10"
     guidetolerance="10"
     inkscape:pageopacity="0"
     inkscape:pageshadow="2"
     inkscape:window-width="1858"
     inkscape:window-height="1057"
     id="namedview839"
     showgrid="false"
     fit-margin-top="0"
     fit-margin-left="0"
     fit-margin-right="0"
     fit-margin-bottom="0"
     inkscape:zoom="1.1893642"
     inkscape:cx="151.93953"
     inkscape:cy="-68.249536"
     inkscape:window-x="1420"
     inkscape:window-y="-8"
     inkscape:window-maximized="1"
     inkscape:current-layer="g845" /><g
     id="g845"
     inkscape:groupmode="layer"
     inkscape:label="dizajn_manual_tuke_1_cast"
     transform="matrix(1.3333333,0,0,-1.3333333,-383.64879,551.63465)"><g
       id="g979"><g
         id="g981"
         clip-path="url(#clipPath985)"><g
           id="g987"
           transform="translate(334.3616,398.185)"><path
             d="M 0,0 H -15.542 V -15.542 H -27.975 V 0 H -43.517 V 12.433 H 0 Z m -0.001,-17.095 c 0,-7.713 -6.274,-13.988 -13.987,-13.988 h -15.541 c -7.713,0 -13.988,6.275 -13.988,13.988 v 13.987 l 12.433,-10e-4 V -18.65 h 18.65 v 15.542 h 12.433 z m -46.624,32.637 v -32.637 c 0,-9.427 7.669,-17.096 17.096,-17.096 h 15.541 c 9.427,0 17.096,7.669 17.096,17.096 v 32.637 z"
             style="fill:#a7a3ab;fill-opacity:1;fill-rule:nonzero;stroke:none"
             id="path989"
             inkscape:connector-curvature="0" /></g><g
           id="g991"
           transform="translate(368.4813,397.954)"><path
             d="m 0,0 h -7.361 v -20.751 h -2.897 V 0 h -7.328 V 2.565 H 0 Z"
             style="fill:#a7a3ab;fill-opacity:1;fill-rule:nonzero;stroke:none"
             id="path993"
             inkscape:connector-curvature="0" /></g><g
           id="g995"
           transform="translate(372.1447,400.5187)"><path
             d="m 0,0 h 2.898 v -15.321 c 0,-1.622 0.466,-2.993 1.399,-4.114 0.932,-1.121 2.42,-1.681 4.463,-1.681 2.065,0 3.564,0.56 4.496,1.681 0.933,1.121 1.399,2.492 1.399,4.114 V 0 h 2.898 v -15.454 c 0,-1.066 -0.15,-2.06 -0.45,-2.982 -0.299,-0.921 -0.772,-1.787 -1.415,-2.597 -0.645,-0.811 -1.561,-1.455 -2.748,-1.932 -1.188,-0.478 -2.581,-0.716 -4.18,-0.716 -1.577,0 -2.959,0.238 -4.147,0.716 -1.188,0.477 -2.104,1.121 -2.748,1.932 -0.644,0.81 -1.116,1.682 -1.415,2.614 -0.3,0.933 -0.45,1.92 -0.45,2.965 z"
             style="fill:#a7a3ab;fill-opacity:1;fill-rule:nonzero;stroke:none"
             id="path997"
             inkscape:connector-curvature="0" /></g><g
           id="g999"
           transform="translate(398.4905,383.864)"><path
             d="M 0,0 V -6.66 H -2.931 V 16.655 H 0 V 3.626 l 11.424,13.029 h 3.464 L 6.041,6.758 15.188,-6.66 H 11.624 L 4.042,4.522 Z"
             style="fill:#a7a3ab;fill-opacity:1;fill-rule:nonzero;stroke:none"
             id="path1001"
             inkscape:connector-curvature="0" /></g><g
           id="g1003"
           transform="translate(417.5089,377.2037)"><path
             d="M 0,0 V 23.315 H 14.789 V 20.85 H 2.931 V 13.356 H 14.189 V 10.958 H 2.931 V 2.465 H 15.322 V 0 Z"
             style="fill:#a7a3ab;fill-opacity:1;fill-rule:nonzero;stroke:none"
             id="path1005"
             inkscape:connector-curvature="0" /></g></g></g></g></svg>